<svg id="Camada_1" data-name="Camada 1" xmlns="http://www.w3.org/2000/svg" viewBox="0 0 160.01717 91.12679"><path d="M12.211,51.145a2.57419,2.57419,0,0,0,1.3382-2.4887q0-2.4315-3.2637-2.8397v-.0329q2.6922-.4401,2.6927-2.6765a2.15592,2.15592,0,0,0-1.1346-2.0645,7.38981,7.38981,0,0,0-3.4028-.612H3.56129v.3102h1.0606v10.8039H3.56129v.3102h4.7982A8.39087,8.39087,0,0,0,12.211,51.145Zm-4.4063-10.4041h.5222a1.21125,1.21125,0,0,1,1.1257.4817,3.46526,3.46526,0,0,1,.294,1.6888v.7673a2.94067,2.94067,0,0,1-.3344,1.5749,1.30389,1.30389,0,0,1-1.1834.5137h-.4241Zm0,5.3366H8.18a1.93149,1.93149,0,0,1,1.5666.5385,2.51206,2.51206,0,0,1,.4408,1.6158v.8648a3.71526,3.71526,0,0,1-.3591,1.8279,1.329,1.329,0,0,1-1.2568.6203h-.7668Zm12.0604,5.7775h5.3372v-.3102h-.751l-4.1128-11.2118h-1.3383l-4.1616,11.2118h-.7667v.3102h2.4969v-.3102h-1.2243l1.2569-3.525h3.2311l1.1914,3.525h-1.1588Zm-3.1168-4.1942,1.534-4.276,1.4195,4.276Zm8.7957,3.884v.3102h5.304v-.3102h-1.0606v-5.4673h.8649a.911.911,0,0,1,.8733.4246,2.87116,2.87116,0,0,1,.2366,1.3382v1.1913a3.62612,3.62612,0,0,0,.5631,2.3584,2.45224,2.45224,0,0,0,1.9013.6282,2.48807,2.48807,0,0,0,1.787-.4734,3.45556,3.45556,0,0,0,.6281-1.8603l-.277-.0326a3.56449,3.56449,0,0,1-.3186,1.1341.52712.52712,0,0,1-.465.2692.37088.37088,0,0,1-.3835-.2939,4.668,4.668,0,0,1-.0898-1.142v-.8654a3.09663,3.09663,0,0,0-.5221-2.0236,2.89291,2.89291,0,0,0-1.8442-.7835V45.898a3.57786,3.57786,0,0,0,2.0887-.71,2.50563,2.50563,0,0,0,.6854-1.9827,2.45615,2.45615,0,0,0-.783-2.0236,3.12933,3.12933,0,0,0-1.2485-.5306,14.16112,14.16112,0,0,0-3.0113-.2204H25.544v.3102h1.0611v10.8039Zm4.2434-10.8039h.5384a1.93642,1.93642,0,0,1,1.3792.4161,2.42164,2.42164,0,0,1,.4325,1.7056v.4734a3.03547,3.03547,0,0,1-.4487,1.8603,1.64553,1.64553,0,0,1-1.3792.571h-.5222Zm7.5398,10.8039v.3102h4.7981a8.3903,8.3903,0,0,0,3.8515-.71,2.57409,2.57409,0,0,0,1.3383-2.4887q0-2.4315-3.2638-2.8397v-.0329q2.69235-.4401,2.6928-2.6765a2.15575,2.15575,0,0,0-1.1346-2.0645,7.38953,7.38953,0,0,0-3.4028-.612h-4.8795v.3102h1.0606v10.8039Zm4.2435-10.8039h.5222a1.21117,1.21117,0,0,1,1.1256.4817,3.46549,3.46549,0,0,1,.2939,1.6888v.7673a2.93983,2.93983,0,0,1-.3343,1.5749,1.30378,1.30378,0,0,1-1.1834.5137h-.424Zm0,5.3366h.3752a1.93126,1.93126,0,0,1,1.5665.5385,2.51146,2.51146,0,0,1,.4408,1.6158v.8648a3.71664,3.71664,0,0,1-.3589,1.8279,1.32942,1.32942,0,0,1-1.2569.6203h-.7667Zm7.4746,5.4185V40.78965h-.963v-.359h8.4865l.1632,3.2317h-.2938a5.80436,5.80436,0,0,0-1.4359-2.2603,3.42053,3.42053,0,0,0-2.2036-.6124h-.571v5.0433h.5547a1.66753,1.66753,0,0,0,1.2895-.5794,3.33923,3.33923,0,0,0,.7346-1.5587h.2446v4.8308h-.2776a3.85061,3.85061,0,0,0-.7914-1.7466,1.79483,1.79483,0,0,0-1.3629-.5222h-.3915V51.496h.6203a3.8028,3.8028,0,0,0,2.5542-.8979,4.55364,4.55364,0,0,0,1.4442-2.3007h.3264l-.1307,3.5576h-8.9598v-.359Zm9.1226.0488v.3102H63.472v-.3102h-1.0606v-5.4673h.8648a.911.911,0,0,1,.8733.4246,2.871,2.871,0,0,1,.2367,1.3382v1.1913a3.62551,3.62551,0,0,0,.5631,2.3584,2.452,2.452,0,0,0,1.9013.6282,2.4884,2.4884,0,0,0,1.787-.4734,3.4564,3.4564,0,0,0,.6281-1.8603l-.277-.0326A3.56379,3.56379,0,0,1,68.67,50.786a.527.527,0,0,1-.4649.2692.371.371,0,0,1-.3836-.2939,4.668,4.668,0,0,1-.0898-1.142v-.8654a3.09663,3.09663,0,0,0-.5221-2.0236,2.89291,2.89291,0,0,0-1.8442-.7835V45.898a3.57846,3.57846,0,0,0,2.0888-.71,2.506,2.506,0,0,0,.6853-1.9827,2.45615,2.45615,0,0,0-.783-2.0236,3.12866,3.12866,0,0,0-1.2485-.5306,14.15984,14.15984,0,0,0-3.0113-.2204h-4.9288v.3102H59.229v10.8039Zm4.2435-10.8039h.5384a1.93615,1.93615,0,0,1,1.3791.4161,2.42215,2.42215,0,0,1,.4325,1.7056v.4734a3.03478,3.03478,0,0,1-.4487,1.8603,1.6452,1.6452,0,0,1-1.3791.571h-.5222Zm57.27519,9.164a1.56148,1.56148,0,0,0-.677-1.3629,6.47833,6.47833,0,0,0-1.926-.824,13.20711,13.20711,0,0,1-1.8117-.6124,4.789,4.789,0,0,1-1.06889-.6854,3.23713,3.23713,0,0,1-1.0118-2.6272,3.42246,3.42246,0,0,1,1.0365-2.4975,3.81052,3.81052,0,0,1,2.83169-1.0442,6.93726,6.93726,0,0,1,1.8032.2528,6.61348,6.61348,0,0,0,1.1667.253q.22906,0,.4082-.3264h.17951l.11439,3.2968h-.2613a10.11606,10.11606,0,0,0-1.64009-2.2766,2.59559,2.59559,0,0,0-1.86031-.857,2.3562,2.3562,0,0,0-1.5586.4655,1.53621,1.53621,0,0,0-.55529,1.2401,1.327,1.327,0,0,0,.6612,1.1912,5.97191,5.97191,0,0,0,1.62379.6776q.9627.2613,1.2647.359.30226.09765.751.2692a3.87944,3.87944,0,0,1,.7342.3589,5.2797,5.2797,0,0,1,.604.4734,2.25166,2.25166,0,0,1,.4976.6281,4.17415,4.17415,0,0,1-.6607,4.6923,3.98441,3.98441,0,0,1-2.8969,1.069,10.82289,10.82289,0,0,1-2.12969-.2446q-1.1997-.24465-1.3303-.245-.229,0-.4408.4896h-.2283l-.1632-3.884h.2775a8.97719,8.97719,0,0,0,1.83579,2.4807,3.40168,3.40168,0,0,0,2.3585,1.0606,2.4524,2.4524,0,0,0,1.4442-.4408A1.51535,1.51535,0,0,0,119.68658,49.90485Zm13.334-9.164v10.8039h.9625v.3102h-5.1079v-.3102h.963v-5.3203h-3.248v5.3203h.94681v.3102h-5.09211v-.3102h.963V40.74085h-.963v-.3102H127.537v.3102h-.94681v5.0595h3.248v-5.0595h-.963v-.3102h5.1079v.3102Zm7.5067-.4896a5.21448,5.21448,0,0,0-4.0882,1.6074,6.35357,6.35357,0,0,0-1.4442,4.4067,6.13351,6.13351,0,0,0,1.3466,4.276,5.24034,5.24034,0,0,0,4.0718,1.4768,5.15589,5.15589,0,0,0,4.0882-1.5503,6.38556,6.38556,0,0,0,1.3623-4.3579,6.3412,6.3412,0,0,0-1.346-4.3327A5.04284,5.04284,0,0,0,140.52728,40.25125Zm1.9748,6.5609a12.774,12.774,0,0,1-.3837,3.778,1.58963,1.58963,0,0,1-1.6725,1.0853,1.7232,1.7232,0,0,1-1.5671-.7998,3.57606,3.57606,0,0,1-.383-1.1997,17.66309,17.66309,0,0,1-.1554-2.8312v-1.1751q0-1.8444.0981-2.7909a4.43571,4.43571,0,0,1,.2204-1.0118,3.19755,3.19755,0,0,1,.3669-.6853,1.21244,1.21244,0,0,1,.5794-.4571,2.41421,2.41421,0,0,1,.8407-.1307,2.34433,2.34433,0,0,1,.8323.1307,1.66767,1.66767,0,0,1,.9299,1.11,14.16867,14.16867,0,0,1,.294,3.7696Zm9.0737-6.3815h-4.7983v.3102h1.0613v10.8039h-1.0613v.3102h6.2834v-.3102h-2.0398v-4.3736h.1306a8.55951,8.55951,0,0,0,3.8352-.7017,2.86373,2.86373,0,0,0,1.469-2.7908,2.69478,2.69478,0,0,0-1.2082-2.5379A7.43333,7.43333,0,0,0,151.57578,40.43065Zm1.5177,3.5907a4.66778,4.66778,0,0,1-.3752,2.1705,1.41692,1.41692,0,0,1-1.3545.6691h-.3427v-6.1201h.4408a1.39763,1.39763,0,0,1,1.281.5546,3.87753,3.87753,0,0,1,.3506,1.9424Z" style="fill:#4d4e7a"/><path d="M89.14559,79.90065c.0592.1733.1293.3463.1969.5198-1.033.1015-2.0744.1597-3.1238.1597a32.51882,32.51882,0,0,1-13.7856-3.0957c.1307-.1379.2655-.2708.3945-.4109a31.9697,31.9697,0,0,0,13.3911,2.9693C87.20159,80.04285,88.17739,79.99135,89.14559,79.90065Zm36.33679-44.9205h29.6824a.26875.26875,0,0,0,0-.5375h-29.565A1.05314,1.05314,0,0,1,125.48238,34.98015Zm-69.38909-.5375H4.42829a.26875.26875,0,0,0,0,.5375h51.8414a.26846.26846,0,0,0,.2466-.1622,32.27606,32.27606,0,0,1,7.6995-10.8841c-.0974-.1558-.1919-.3094-.2888-.4647A32.812,32.812,0,0,0,56.09329,34.44265Zm-.6649,23.2081a.26834.26834,0,0,0-.2555-.1858H4.42829a.26875.26875,0,0,0,0,.5375h50.5498a32.24537,32.24537,0,0,0,4.4935,8.7609q.161-.23445.3257-.467A31.69527,31.69527,0,0,1,55.42839,57.65075Zm99.73639.3517a.26875.26875,0,0,0,0-.5375h-36.2139c.2229.1691.4428.3503.661.5375ZM86.21869,15.30925a32.4401,32.4401,0,0,1,7.0434.7729l-.3569-.6218a32.88489,32.88489,0,0,0-21.1965,2.6818c.1255.1386.2501.2748.376.4143A32.34442,32.34442,0,0,1,86.21869,15.30925ZM115.46358,61.513a32.11841,32.11841,0,0,1-4.29679,6.6933c.0656.1944.1352.3884.2118.5824a32.6717,32.6717,0,0,0,4.53469-6.9687Q115.68948,61.65375,115.46358,61.513ZM94.68239,79.43555a33.22742,33.22742,0,0,0,7.6599-3.1617c-.157-.1212-.3155-.2367-.4756-.3486a32.65179,32.65179,0,0,1-7.4114,3.0153Q94.55849,79.18685,94.68239,79.43555Z" style="fill:#a67c52"/><path d="M104.83409,71.77835q.7659-.5913,1.4946-1.229c.0964.2735.2063.5485.3228.8246a1.47844,1.47844,0,0,0-.5821.2857l-.0578.0472a1.0802,1.0802,0,0,0-.3531.5374l-.0189.0677c-.007.0242-.0174.0439-.025.0671Q105.224,72.05835,104.83409,71.77835Zm50.33069-16.1942h-39.0967a.53032.53032,0,0,0-.3704.1572,9.5579,9.5579,0,0,1,2.04831.9175h37.41879a.53735.53735,0,1,0,0-1.0747Zm-41.45219,5.2477a30.32416,30.32416,0,0,1-3.0672,5.0579,10.4113,10.4113,0,0,0,.2546,1.4174,31.39135,31.39135,0,0,0,3.855-6.1704A3.90587,3.90587,0,0,0,113.71259,60.83185Zm11.70889-23.9708h29.7433a.5374.5374,0,0,0,0-1.0748h-30.0307l.199.3946A1.066,1.066,0,0,1,125.42148,36.86105Zm-68.43759-1.0748H4.42829a.5374.5374,0,0,0,0,1.0748h52.9193a.537.537,0,0,0,.5001-.3407,30.591,30.591,0,0,1,7.3776-10.9843c-.1947-.3079-.3944-.6192-.5867-.9253A31.64819,31.64819,0,0,0,56.98389,35.78625ZM72.628,19.15755c.2483.2764.4999.5617.7493.841a30.80117,30.80117,0,0,1,21.1797-1.6608l-.7507-1.3078a31.89693,31.89693,0,0,0-21.1783,2.1276Zm-15.7427,36.8181a.53721.53721,0,0,0-.517-.3915h-51.94a.53735.53735,0,1,0,0,1.0747h51.536a31.26118,31.26118,0,0,0,4.3157,8.9686q.33525-.4542.6844-.9018A30.19263,30.19263,0,0,1,56.88529,55.97565Zm32.0228,23.1435a10.46788,10.46788,0,0,1-.2274-1.0588q-1.22145.0996-2.4625.1015a30.28722,30.28722,0,0,1-12.1207-2.534c-.2411.2868-.4905.5631-.7376.8423a31.35359,31.35359,0,0,0,12.8583,2.7666C87.12209,79.23675,88.019,79.19585,88.90809,79.11915Zm5.28-.9194a31.59864,31.59864,0,0,0,6.95-2.7452,10.65243,10.65243,0,0,0-1.1697-.601,30.50259,30.50259,0,0,1-5.982,2.2883A5.27271,5.27271,0,0,0,94.18809,78.19975Z" style="fill:#a67c52"/><path d="M86.30849,55.00135a49.53581,49.53581,0,0,1,3.3489,21.3161c-.264,4.2749,3.8385,10.0117,8.7794,12.2773,3.8714,1.775,7.5827,1.2132,10.4625-1.5951.0535-.059.105-.1183.1556-.1792,1.9945-2.4011,1.6497-6.1865-.737-9.8443a2.05381,2.05381,0,0,1,1.4498-.5691l.0831-.0016.0646-.0529a.40461.40461,0,0,0,.0543-.0539.51489.51489,0,0,0,.0887-.4339,7.35167,7.35167,0,0,0-2.8013-3.4176.48339.48339,0,0,0-.5069.0444l-.0577.0473-.0208.0718a2.5615,2.5615,0,0,1-.8946,1.3399c-2.6967-2.5076-4.9877-3.3553-9.1488-3.5059a3.49323,3.49323,0,0,1-3.0395-2.3292,52.42,52.42,0,0,1-2.6731-15.0869c.2035-.5154.3846-1.0094.5624-1.5004.2317-.02.4622-.0394.6996-.0628a52.34681,52.34681,0,0,1,13.7913,6.7225,3.54694,3.54694,0,0,1,1.3551,3.6876c-1.1058,4.57-.8056,7.3088,1.1962,10.8633a14.29881,14.29881,0,0,0,4.4625,4.8051,14.07962,14.07962,0,0,1,4.244,4.2916,10.123,10.123,0,0,0,2.1228,2.4633c4.1389,3.3077,7.3337,2.6717,7.6545,2.5965a1.29279,1.29279,0,0,0,.4128-.1183,1.11994,1.11994,0,0,0,.6115-1.0875,1.21051,1.21051,0,0,0-1.2652-1.1471c-.0376-.0003-3.7855-.0665-4.82919-2.7708a6.84224,6.84224,0,0,1-.29851-3.4213,5.80127,5.80127,0,0,1,1.1074-2.7042,8.22946,8.22946,0,0,0,1.3162-2.5928c.9032-2.9813.2554-6.6798-1.7773-10.1472-1.927-3.2876-4.7486-5.6867-7.36929-6.2624a33.33942,33.33942,0,0,1-8.8095-2.7761,6.04214,6.04214,0,0,1-3.4197-3.8312,1.98606,1.98606,0,0,0-.632-1.099,2.50736,2.50736,0,0,0-1.6591-.0135,4.76746,4.76746,0,0,1-3.7563-.4104c-1.253-.8915-2.3646-1.7282-3.3924-2.5473a42.39689,42.39689,0,0,1,4.5145-4.204,2.24775,2.24775,0,0,0,.8344-2.4216,2.31425,2.31425,0,0,0,1.8441-1.1564.94163.94163,0,0,0,.0843-.1129l-.0206-.011c.0044-.0097.0108-.0194.0151-.029a1.49756,1.49756,0,0,0-.0337-1.3084,5.77105,5.77105,0,0,0,3.7125-3.7559l2.1196,3.6923.2032-.0235c7.6062-.8808,13.08849-.5432,16.75979,1.032l.2164.093.8804-1.0956-.6302-1.2491.7951-.9266-.11639-.1922-18.6167-30.7024a1.89826,1.89826,0,0,0-.6898-.6766,11.57914,11.57914,0,0,0-13.0227,1.3845,8.62261,8.62261,0,0,0-2.6455.5251l-.0752.0303-.7666.9539L98.73319,23.454c.0225,1.2705-.0296,2.1026-.8922,2.2739a5.72125,5.72125,0,0,0-4.6975,5.0865,1.40763,1.40763,0,0,0-1.2014.227,2.4568,2.4568,0,0,0-.9533,2.1725,2.23489,2.23489,0,0,0-2.2039,1.3227c-.5472,1.1131-1.1461,2.1847-1.7809,3.2266a351.38953,351.38953,0,0,0-29.9632-33.2307l-.0067-.0062a.58515.58515,0,0,0-.905.7365l.0377.061-.3788-.4167a.58552.58552,0,0,0-.9514.6776c6.2669,11.9087,14.6958,25.2586,25.6748,40.6702-2.6023,2.8518-5.3991,5.5074-8.1556,8.1212-7.7778,7.3758-15.1243,14.3425-16.7942,24.4481a4.405,4.405,0,0,0,1.9808,3.7851,4.40265,4.40265,0,0,0,4.0977,1.131c9.5367-3.8151,14.7591-12.4887,20.2879-21.6717C83.34609,59.71335,84.78149,57.33305,86.30849,55.00135Zm-6.5644,7.935a93.59989,93.59989,0,0,1-6.4417,9.0785,45.83874,45.83874,0,0,1-8.1712,7.9231,55.31355,55.31355,0,0,0,7.5033-8.3571c2.2085-2.9641,4.198-6.0449,6.1792-9.1474,1.9802-3.103,3.9519-6.235,6.115-9.3027.1351-.1913.2734-.3817.41-.5726.1181.2826.2372.5654.3508.8473-.027.0425-.0547.0848-.0818.1272C83.61039,56.667,81.72709,59.82585,79.74409,62.93635Zm1.6114-15.4963q.27315.3816.5493.7656c-.2676.3145-.5342.6304-.8056.9395-3.2954,3.7239-6.8394,7.1093-10.2708,10.5624a83.85674,83.85674,0,0,0-9.5841,10.9939l-.5297.751-.266.376c-.0869.1263-.161.2606-.2423.3906q-.4797.78615-.9611,1.5753a17.08421,17.08421,0,0,0-.9084,1.6061,10.51793,10.51793,0,0,0-.6831,1.6913,4.53115,4.53115,0,0,0,.2047,3.5272,3.714,3.714,0,0,0,1.2519,1.351,3.10027,3.10027,0,0,0,.8726.3585,2.67446,2.67446,0,0,0,.9595.0112,2.67539,2.67539,0,0,1-.9643.0703,3.10793,3.10793,0,0,1-.9309-.2921,3.87992,3.87992,0,0,1-1.4373-1.3094,3.98118,3.98118,0,0,1-.6589-1.8513,6.198,6.198,0,0,1,.1249-1.9513,10.70914,10.70914,0,0,1,.5959-1.832,16.2895,16.2895,0,0,1,.8261-1.6999q.4464-.82665.892-1.6513l.2236-.4122.2498-.3951.5031-.7878a67.40938,67.40938,0,0,1,9.4549-11.378c3.4616-3.4818,7.076-6.7826,10.5146-10.3283C80.67819,48.16465,81.01719,47.80275,81.35549,47.44005Zm9.1087-4.3866-3.0937-3.4033c-.4574-.5394-.9174-1.0767-1.3629-1.6264l-.9556-1.1826c-.2386-.2962-.4773-.5925-.6563-.8146a2.34708,2.34708,0,0,0-.316-.3577,2.13164,2.13164,0,0,0,.2343.391c.1507.2273.3562.5273.5663.8239l.0872.1229-8.8727-9.7605q-2.907-3.64515-5.8997-7.2208s-.5711-.6737-1.428-1.6841c-.8586-1.0087-2.0173-2.3421-3.1901-3.6628-.5844-.6621-1.1805-1.3139-1.7341-1.9293-.5614-.6085-1.0854-1.1763-1.5346-1.663-.4572-.4793-.838-.8787-1.1048-1.1583l-.3148-.3194a.62243.62243,0,0,0-.119-.1059.57294.57294,0,0,0,.0904.1225l.2773.3263c.2433.2768.591.6723,1.0081,1.1469.416.4755.9011,1.0302,1.421,1.6247.5157.5978,1.0659,1.2354,1.6159,1.8732,2.1926,2.5576,4.3263,5.1638,4.3263,5.1638q.92835,1.13025,1.8445,2.27L58.38929,7.76875l-1.7004-2.7421C66.88279,14.76885,77.95179,27.23275,90.46419,43.05345Zm-.9504-6.4217c-.405.8918-.8519,1.7572-1.3179,2.6096-.0516-.0644-.1041-.1307-.1556-.1949C88.55119,38.25975,89.04829,37.46015,89.51379,36.63175Zm.9562.0379a13.12658,13.12658,0,0,0,2.0405,2.2761,12.7106,12.7106,0,0,0,2.5205,1.7636A5.72224,5.72224,0,0,1,90.47,36.66965Zm1.8653,9.3348.0326.0309c1.1719.9536,2.4539,1.9243,3.9201,2.9673a5.31791,5.31791,0,0,0,4.2069.5128,2.729,2.729,0,0,1,1.2284-.0751,1.75421,1.75421,0,0,1,.3927.7924,6.64938,6.64938,0,0,0,3.7127,4.1687,33.85318,33.85318,0,0,0,8.9607,2.8298c2.45669.5398,5.12919,2.8306,6.97439,5.9784,1.94821,3.3235,2.5756,6.848,1.7207,9.6696a7.63077,7.63077,0,0,1-1.2202,2.4042,6.403,6.403,0,0,0-1.2234,2.9843,7.42828,7.42828,0,0,0,.33311,3.7198c.01169.0304.02779.056.04019.0858-.0113-.0218-.0258-.0419-.0366-.0638a6.25568,6.25568,0,0,1-.6348-2.7438,6.33582,6.33582,0,0,1,.6696-2.8919,5.59459,5.59459,0,0,0,4.4339,9.015,6.38136,6.38136,0,0,1-2.6751-1.2203c-.1041-.0803-.1986-.1701-.2973-.256a7.43535,7.43535,0,0,0,3.8898,1.2302.61156.61156,0,0,1,.6652.582.52133.52133,0,0,1-.51.576l-.0415.0075c-.0306.0077-3.1317.7352-7.153-2.4785a9.506,9.506,0,0,1-2.0011-2.332,14.61919,14.61919,0,0,0-4.412-4.4565,13.70909,13.70909,0,0,1-4.2735-4.6069c-1.9093-3.3906-2.1946-6.0195-1.13-10.4176a4.14734,4.14734,0,0,0-1.5815-4.3116,53.0479,53.0479,0,0,0-14.016-6.8291l-.0619-.0211-.0649.0066a39.635,39.635,0,0,1-7.1537.15.84532.84532,0,0,1-.6122-.3501c-12.6343-17.3953-22.1259-32.2111-29.0096-45.2799Zm4.2715,25.04a12.91244,12.91244,0,0,1,6.2659,1.4518c-.0805-.0402-.1591-.0838-.2407-.122a10.67911,10.67911,0,0,0-5.5174-.9937,11.52,11.52,0,0,1,5.2931,1.3933,13.605,13.605,0,0,1,4.0658,3.3968,16.14038,16.14038,0,0,1,1.5091,2.1896,12.31553,12.31553,0,0,1,1.0962,2.4331,7.58416,7.58416,0,0,1,.3707,2.6628,5.70941,5.70941,0,0,1-.7733,2.653,5.54746,5.54746,0,0,0,1.0392-2.6058c.0253-.1841.0361-.3692.0455-.5542a5.23686,5.23686,0,0,1-1.2935,3.6339c-2.677,2.6096-6.1502,3.1302-9.7804,1.4658-4.7414-2.174-8.6808-7.6387-8.4306-11.6886.6266-7.7507-.9259-16.0404-4.6145-24.6384l-.0089-.0208-.0302-.0487c1.0687.0647,2.2054.0746,3.425.0298-.0264.1368-.0546.2735-.0902.4092l-.0575.2391c-.0274.1208-.0539.2443-.0282.2569.0256.0124.1042-.081.1728-.1813.0689-.0997.1276-.2055.1276-.2055.0927-.1729.1764-.3516.2544-.5335.0667-.0031.1352-.0072.2024-.0106-.0489.161-.1072.3196-.1529.4811,0,0-.0563.2036-.1026.41a1.13144,1.13144,0,0,0-.0554.4241c.0273.0088.1172-.1721.2033-.3535l.1675-.3639c.0914-.2089.197-.4099.2934-.6161.0746-.0044.1466-.007.2219-.0116l-.2246.7515-.1342.4648-.0155.054.0007.0563.0018.067.0037.1198.0083.2392c.0264.6381.048,1.2735.1263,1.9202.0806.6314.164,1.2626.2542,1.8929.3589,2.5211.8016,5.0319,1.3761,7.5135l.2532,1.0512c.1646.627.3573,1.4712.6558,2.2915a6.78118,6.78118,0,0,0,.5444,1.1584,4.62967,4.62967,0,0,0,.6838.8826,3.42621,3.42621,0,0,0,.6163.4916,2.1523,2.1523,0,0,0,.1933.1062c.0458.0221.0711.0324.0727.0292.0044-.0079-.0939-.0644-.2539-.179a3.89509,3.89509,0,0,1-.6014-.5444,4.77814,4.77814,0,0,1-.6525-.9393,7.2463,7.2463,0,0,1-.5024-1.2141c-.2683-.8564-.4533-1.7446-.6071-2.4037l-.2395-1.1034c-.5087-2.4314-.8975-4.8865-1.2036-7.3513-.0773-.6153-.1488-1.2347-.2157-1.8489-.0547-.6047-.0683-1.2292-.0823-1.8472l-.0039-.2323-.0012-.0955.0206-.0684.1365-.4445.2702-.8523c.051-.0037.1019-.0071.1532-.011-.156.4239-.3089.8447-.4841,1.2871l-.0241.0608.0034.0654a53.09912,53.09912,0,0,0,2.714,15.3315A4.04506,4.04506,0,0,0,96.60679,71.04445Zm12.7789,4.9222a4.13479,4.13479,0,0,0-.6367-.5584,2.08623,2.08623,0,0,0-.1876-.1131c-.0972-.0515-.2006-.0904-.2174-.0676-.0169.0232.0452.1064.1062.1867l.1225.1573a3.80374,3.80374,0,0,1,.3425.5006c-.0375.012-.0733.0269-.1096.0406-.0827-.076-.1627-.1565-.2508-.2225a1.04709,1.04709,0,0,0-.1123-.0692c-.0593-.0311-.1242-.054-.1444-.034-.0203.0202-.0009.0823.0205.1397.0217.0572.0462.1101.0462.1101.0388.0771.0635.1567.095.2354-.027.0153-.0523.0334-.0786.0497a2.02171,2.02171,0,0,0-.2028-.2146.77412.77412,0,0,0-.1015-.0659c-.0541-.029-.1143-.0484-.1348-.0287-.0207.0199-.0072.0773.0071.1299l.0315.1006a1.59268,1.59268,0,0,1,.0774.3168l-.0139.0135a18.016,18.016,0,0,0-1.5189-1.9c-.0725-.0732-.1428-.1397-.2145-.2105l.2316.0856s.236.0822.2679.0347c.0317-.0474-.1253-.2277-.1253-.2277l-.1341-.1444c.0873.043.1772.0762.2618.127l.1394.0766c.0718.0371.1475.0736.1684.0539.0207-.0195-.0102-.0956-.0501-.1657a1.36244,1.36244,0,0,0-.0872-.1341,4.03454,4.03454,0,0,0-.2899-.3067,3.78021,3.78021,0,0,1,.4638.2619l.1763.1136c.0896.0565.1818.1146.2033.0954.0211-.0188-.0245-.1147-.0815-.2036a1.95061,1.95061,0,0,0-.123-.1706c-.0722-.0851-.1524-.1645-.232-.2443a6.57555,6.57555,0,0,1,.7918.5994s.1387.1252.2775.2507c.1388.1265.2758.2583.2989.241.0226-.0169-.0626-.1796-.1637-.3333-.1001-.1542-.2148-.2984-.2148-.2984a7.02694,7.02694,0,0,0-1.0929-1.072c.0291-.07.0645-.1351.0894-.2083a4.93807,4.93807,0,0,1,1.4621,1.3515,5.03823,5.03823,0,0,1,1.0369,1.6893C109.51559,75.93945,109.45309,75.95745,109.38569,75.96665Zm-51.2345,1.8225a54.91825,54.91825,0,0,1,7.4115-11.9286,56.04411,56.04411,0,0,1,10.2572-9.7259c-3.328,3.527-6.3156,6.9851-9.2054,10.5221C63.731,70.19915,60.944,73.82165,58.15119,77.78915Zm65.59629-43.3798a9.64818,9.64818,0,0,0-5.4166-2.6455s-.1772-.0178-.443-.0442c-.1324-.0173-.2888-.016-.4551-.0235a5.13012,5.13012,0,0,0-.5213.0017,4.87752,4.87752,0,0,0-1.3978.2011c.0061.0403.7365-.0396,1.4622.0097.1815.0042.3619.0255.5308.0441.1692.0144.3258.037.4595.0616.1337.0219.2453.04.3233.0528l.1212.0271a9.19758,9.19758,0,0,1,3.0705,1.2317,12.8327,12.8327,0,0,0-2.6755-.783,11.3625,11.3625,0,0,0-1.1902-.1329,4.55584,4.55584,0,0,0-1.1931.0335c0,.039.6189.0792,1.2264.1813.304.0483.60621.1056.8301.1585.22511.0485.3734.0875.3734.0875a12.21683,12.21683,0,0,1,2.8936,1.1178c-2.658-1.2355-6.4773-1.5036-11.404-.7985,1.2181-1.0884,3.5794-1.7612,6.23169-1.7198C119.12788,31.51005,122.30408,32.311,123.74748,34.40935ZM92.75569,4.57925q5.511,8.70555,10.8263,17.535l2.421,4.0192c.6059,1.0045,1.2117,2.0091,1.6661,2.7625.2304.375.4223.6875.5567.9061a2.39388,2.39388,0,0,0,.2261.3351,2.64038,2.64038,0,0,0-.1877-.3796c-.1289-.2359-.3132-.5732-.5344-.9777-.4523-.8033-1.0552-1.8745-1.6583-2.9458l-2.4512-4.2626Q98.536,12.834,93.25579,4.21035c.2156-.1492.4336-.2925.6554-.4257q4.71525,7.48425,9.2739,15.0686s1.0519,1.7452,2.1038,3.4905c.5274.872,1.0549,1.7437,1.4505,2.3978.2009.3251.3683.5961.4858.7859a1.812,1.812,0,0,0,.1992.2893,2.00832,2.00832,0,0,0-.1596-.3316c-.1111-.2056-.2697-.4993-.46-.8516-.3907-.6992-.9114-1.6314-1.432-2.5637-1.0593-1.8543-2.1185-3.7088-2.1185-3.7088q-4.32825-7.4826-8.8066-14.8787c.2309-.123.465-.2365.7011-.3427l7.6472,12.5902,1.7764,2.8968c.449.7215.898,1.4429,1.2348,1.9841l.4165.6483a1.27017,1.27017,0,0,0,.1731.2373,1.39118,1.39118,0,0,0-.1319-.277l-.3877-.7074c-.3289-.581-.7673-1.3556-1.2057-2.1303-.8868-1.5436-1.7734-3.0874-1.7734-3.0874l-7.1765-12.3924q.3753-.1452.7563-.263l6.0296,9.9681s.7034,1.1491,1.4067,2.298c.3566.5719.7133,1.1435.9808,1.5725a5.70153,5.70153,0,0,0,.4742.6986,6.14676,6.14676,0,0,0-.3985-.7883c-.2562-.4634-.5978-1.0809-.9393-1.6985-.693-1.2299-1.3862-2.4596-1.3862-2.4596L97.08659,2.467q.4053-.10065.814-.1699l4.3473,7.2364s.5115.8373,1.0229,1.6745c.2605.4159.5211.8318.7166,1.1438a3.03037,3.03037,0,0,0,.3543.5038,3.32463,3.32463,0,0,0-.2726-.5837c-.1806-.3407-.4216-.7947-.6624-1.2489-.4917-.9029-.9832-1.8056-.9832-1.8056l-3.8757-7.0151c.2925-.032.5855-.05.8783-.058l2.5938,4.3734s1.2296,2.0532,1.2942,2.0175c.0646-.0358-1.0784-2.2674-1.0784-2.2674l-2.1246-4.1223a10.36132,10.36132,0,0,1,4.701,1.3143,1.27406,1.27406,0,0,1,.4625.457l17.30259,28.5351c-.0441-.0289-.0879-.0581-.13319-.0865q-2.445-3.66555-4.70051-7.46s-.5162-.8651-1.03249-1.7303c-.25891-.4324-.51781-.865-.71191-1.1894a3.17287,3.17287,0,0,0-.3492-.5273,3.50982,3.50982,0,0,0,.2664.6065c.1739.3564.4131.828.65771,1.2965.48819.9376.99639,1.8647.99639,1.8647q1.8315,3.3282,3.8081,6.5769c-.048-.021-.099-.0395-.1476-.0598l-2.0407-3.0959a13.5658,13.5658,0,0,0-1.0217-1.3977,14.91286,14.91286,0,0,0,.7986,1.628L120.359,31.423l-.06681-.021-.5629-.8781s-.284-.4249-.3512-.3939c-.067.0306.0797.5451.0797.5451l.1627.5455a13.912,13.912,0,0,0-3.0373-.3709c-3.04729-.0473-5.76439.833-6.99619,2.2235L92.61949,4.68405C92.66459,4.64835,92.71029,4.61415,92.75569,4.57925Zm-3.401,1.2914.1705-.2122,11.8686,19.9392s5.4875,9.1992,5.5513,9.1618c.0636-.0372-5.5423-9.7592-5.5423-9.7592L90.01759,5.28185a8.69155,8.69155,0,0,1,2.0255-.3525l17.351,29.0308.2077-.0336c6.41679-1.0355,10.96969-.4796,13.52579,1.6468l.1603.3178a16.16482,16.16482,0,0,0-4.5771-1.4026,26.622,26.622,0,0,0-5.72819-.268s-.3237.0248-.8094.0619c-.484.053-1.1295.1243-1.7683.2427a14.259,14.259,0,0,0-1.7347.4164c-.2332.0691-.4194.1542-.5516.2042a.73035.73035,0,0,0-.2013.0965,8.44452,8.44452,0,0,0,.82-.2036,17.205,17.205,0,0,1,1.8216-.3234c.3338-.0431.6674-.0839.9827-.104.3145-.0248.6071-.0543.8598-.0597.2521-.0107.462-.0198.6091-.0261.1469-.0075.2309-.0078.2309-.0078a26.67289,26.67289,0,0,1,5.50869.4481,15.24748,15.24748,0,0,1,4.7905,1.745l-.2373.2954c-3.73529-1.5268-9.18929-1.8575-16.65469-1.0102l-2.8881-5.0309.0037-.0315-.0223-.0011Zm8.6073,20.4661c1.018-.2025,1.3017-.9834,1.3737-1.833l.1096.1909-.0426.0199a1.42674,1.42674,0,0,1-.414,1.5278,5.23089,5.23089,0,0,1-1.6548.9828,5.13919,5.13919,0,0,0-1.7422,1.1755,4.63192,4.63192,0,0,0-1.0619,1.809,4.20418,4.20418,0,0,0-.1336.5809,4.43727,4.43727,0,0,0-.0134,1.2989,4.24309,4.24309,0,0,0,.3609,1.2356,1.72776,1.72776,0,0,0,.3035.4965c.0187-.0104-.0937-.2253-.2117-.5636a4.77159,4.77159,0,0,1-.2529-1.2757,4.46116,4.46116,0,0,1,.119-1.2812,3.97345,3.97345,0,0,1,.178-.5547,4.31882,4.31882,0,0,1,1.0783-1.563,4.22021,4.22021,0,0,1,.7645-.5593,7.79551,7.79551,0,0,1,.878-.4077,5.21593,5.21593,0,0,0,1.81-1.0282,2.4967,2.4967,0,0,0,.5864-.9327l.0564.0984a.97349.97349,0,0,1-.1013.5739,1.79,1.79,0,0,1-.4684.5466,5.87263,5.87263,0,0,1-1.3875.8018,8.45962,8.45962,0,0,0-1.5253.7858,3.77464,3.77464,0,0,0-1.5157,2.8461,3.36976,3.36976,0,0,0,.1162,1.0584,1.25251,1.25251,0,0,0,.1846.444,4.34281,4.34281,0,0,0-.0813-.4892,3.751,3.751,0,0,1-.002-1.0655,3.89174,3.89174,0,0,1,.2923-1.0136,3.57322,3.57322,0,0,1,.2243-.4215,3.26771,3.26771,0,0,1,1.0865-1.0952,9.46054,9.46054,0,0,1,1.4667-.6482,6.15331,6.15331,0,0,0,1.5079-.8002,2.29743,2.29743,0,0,0,.622-.6888c.0106-.0182.0172-.0389.027-.0577l2.6316,4.5841a5.02622,5.02622,0,0,1-.8537,2.4426,4.90456,4.90456,0,0,1-2.2057,1.7778,5.66662,5.66662,0,0,1-1.269.3523c-.6577.1093-1.3315.0322-1.3372.0703a3.51127,3.51127,0,0,0,1.4246.1304,5.12065,5.12065,0,0,0,.981-.1722c.263-.0734.4329-.1406.4329-.1406a5.24309,5.24309,0,0,0,2.3887-1.8012,5.518,5.518,0,0,0,.8974-1.8596l.1546.2691a5.24149,5.24149,0,0,1-3.8501,4.0722,4.94176,4.94176,0,0,1-4.1902-1.0746l-.0278-.0224a4.94131,4.94131,0,0,1-1.9511-3.8607A5.15351,5.15351,0,0,1,97.962,26.33675Zm-5.175,5.106.0025.0013.0006.0003-.0032-.0016-.0016-.0007h.0001l.0006.0002Zm-.5091.1236c.0011.0171.0008.0371.0022.0529l-.0451-.0169C92.24929,31.59085,92.26309,31.577,92.27789,31.56635Zm-.5995.9182a5.06385,5.06385,0,0,0,.1861.6624,7.5683,7.5683,0,0,0,.7141,1.476,6.11926,6.11926,0,0,0,.4336.5973,1.9764,1.9764,0,0,0,.5286.5129,4.47158,4.47158,0,0,0-.3756-.6611c-.1903-.3234-.3488-.66-.3488-.66a7.1852,7.1852,0,0,1-.516-1.4322,2.18268,2.18268,0,0,1-.0192-1.3539c.0145.1396.0475.2363.0664.3589a7.48879,7.48879,0,0,0,.2715.9284,7.13811,7.13811,0,0,0,.9014,1.6872,5.94765,5.94765,0,0,0,.5572.657,2.39885,2.39885,0,0,0,.6677.5371,8.06856,8.06856,0,0,0-.5345-.7036,7.84588,7.84588,0,0,1-.4761-.7267,6.77172,6.77172,0,0,1-.6846-1.6318,6.66162,6.66162,0,0,1-.1711-.8612,1.75771,1.75771,0,0,1-.0256-.3718c.0032-.0135.007-.0188.0091-.019l.0003-.0001-.0481-.0238a.14934.14934,0,0,1-.017-.0487.08614.08614,0,0,1-.0004-.0252.69832.69832,0,0,1,.3057.075,5.64145,5.64145,0,0,0,2.1844,4.1849l.0279.0223a5.646,5.646,0,0,0,4.5473,1.235.79463.79463,0,0,1,.1579.3762l-.0002-.0001.0024.0178.0009.0089a.23532.23532,0,0,1-.1039.14,1.21291,1.21291,0,0,1-.3904.1449,4.113,4.113,0,0,1-.9521.119s-.2201.0061-.4434-.0059c-.2236-.0083-.4501-.0358-.4609,0-.011.0347.2092.1412.4456.211a3.50145,3.50145,0,0,0,.4811.1066,4.49894,4.49894,0,0,0,1.0265.0248l.0969-.0102a1.65734,1.65734,0,0,1-.6632.1737,5.14771,5.14771,0,0,1-1.2965-.0467s-.2941-.0428-.5859-.1154a2.80853,2.80853,0,0,0-.5982-.1335,1.54116,1.54116,0,0,0,.5572.342,4.74628,4.74628,0,0,0,.6173.2222,5.53092,5.53092,0,0,0,1.1114.1834,2.12482,2.12482,0,0,1-.7363.0655,8.13371,8.13371,0,0,1-6.458-5.1782A1.955,1.955,0,0,1,91.67839,32.48455Zm-2.342,2.3361a1.59116,1.59116,0,0,1,1.7873-.9431,8.82847,8.82847,0,0,0,6.7832,5.4511,1.59582,1.59582,0,0,1-.5452,1.9561,42.76987,42.76987,0,0,0-4.4058,4.0816,1.46159,1.46159,0,0,0-.1501-.2927,43.02625,43.02625,0,0,1,4.3623-4.0313,1.38829,1.38829,0,0,0,.5272-1.4272,9.20533,9.20533,0,0,1-6.8058-5.4691,1.11625,1.11625,0,0,0-.9623.3879,12.02653,12.02653,0,0,0,3.0282,3.7675,11.9046,11.9046,0,0,0,4.3329,2.3299,8.406,8.406,0,0,1-7.3695-6.0888,2.10806,2.10806,0,0,0-.3093.4255c-.6065,1.2336-1.275,2.4154-1.9847,3.5618-.0694-.0862-.1377-.1696-.207-.2557C88.103,37.16145,88.74909,36.01535,89.33639,34.82065Zm-7.9399,26.9279c-5.4738,9.0909-10.6439,17.6776-19.9597,21.4062a3.78968,3.78968,0,0,1-3.5056-1.0293,3.79019,3.79019,0,0,1-1.7541-3.229c1.6329-9.8711,8.9059-16.7681,16.6057-24.07,2.7346-2.5931,5.5094-5.2261,8.0981-8.0527.0621.0868.1227.1726.1849.2595-2.5817,2.8138-5.3457,5.4354-8.0693,8.0183-7.6615,7.2653-14.8974,14.1273-16.5134,23.8955a3.51461,3.51461,0,0,0,1.6425,2.9364,3.51229,3.51229,0,0,0,3.2234.9736c9.1916-3.68,14.3355-12.2232,19.7815-21.2681,1.537-2.5527,3.0948-5.1341,4.7672-7.6548.0467.1188.0911.2371.137.3557C84.41119,56.74755,82.89379,59.26175,81.39649,61.74855ZM93.26379,73.986l-.0148.0175c-1.7219,2.0723-.9684,5.658,1.5923,8.6324-.0978-.1074-.204-.2056-.2973-.3175a13.45044,13.45044,0,0,1-2.5093-4.2759,11.90759,11.90759,0,0,0,2.1413,4.5484,12.74578,12.74578,0,0,0,1.696,1.8363c.3224.263.6308.5446.977.776.1703.1193.3367.2446.511.3577l.5335.3234a5.79469,5.79469,0,0,0,.5472.2991c.1862.0929.3701.1903.5587.2781l.5775.2387c.0968.0385.1919.0812.2901.1159l.2977.0967c.1988.0635.3964.1301.5965.1893l.6104.1445c.1019.0229.2031.0494.3058.0691l.3108.0473.6219.091a6.11128,6.11128,0,0,0,2.5322-.1807,3.06158,3.06158,0,0,0,1.9056-1.6212,3.01913,3.01913,0,0,1-1.9594,1.3563,6.15528,6.15528,0,0,1-2.3861-.0074c-.0491-.0095-.0976-.0202-.1465-.03a4.90123,4.90123,0,0,0,4.3998-1.4686l.0152-.0181a5.03015,5.03015,0,0,0,.5994-4.8629,12.73429,12.73429,0,0,0-9.603-8.0771A5.01994,5.01994,0,0,0,93.26379,73.986Zm4.6233-.8468a12.14,12.14,0,0,1,9.1107,7.6633,4.45849,4.45849,0,0,1-.4888,4.2983l-.0127.0151a4.44868,4.44868,0,0,1-4.1638,1.233,11.24106,11.24106,0,0,1-5.5592-2.6381c-3.5136-2.9553-4.8837-7.1318-3.0628-9.3232l.0126-.0151A4.44973,4.44973,0,0,1,97.88709,73.13915Zm2.4141-.9571a12.90031,12.90031,0,0,1,8.6187,8.541,17.16578,17.16578,0,0,0-8.6187-8.541Zm2.993,15.6321a11.05812,11.05812,0,0,1-10.5844-6.9623,13.43932,13.43932,0,0,0,10.5844,6.9623Zm-13.2924-22.9076c-.1051-.4226-.2452-.9861-.3852-1.5495-.2863-1.1252-.6005-2.2419-.6005-2.2419a75.35676,75.35676,0,0,0-3.1569-9.0189l.4445-.1817a76.03906,76.03906,0,0,1,2.9992,9.3434s.2691,1.078.4961,2.1651c.1167.5428.2202,1.0884.2933,1.4982a4.94019,4.94019,0,0,1,.099.6874.77577.77577,0,0,1-.0617-.1912C90.09879,65.29405,90.05459,65.11805,90.00179,64.90655Zm21.6848-5.4335a5.02066,5.02066,0,0,0-2.677,4.1277,10.57629,10.57629,0,0,0,.1738,3.7006,15.97745,15.97745,0,0,1-.5368-4.0241,13.21374,13.21374,0,0,0,1.724,8.4494,11.25736,11.25736,0,0,0,2.8655,3.2752,7.1756,7.1756,0,0,0,1.9499,1.0531,5.22519,5.22519,0,0,0,2.202.285,6.41537,6.41537,0,0,1-3.8432-1.682c-.1818-.1543-.3485-.3232-.5179-.4896,1.9203,1.7384,4.16269,2.4446,5.97779,1.6311.0381-.0172.0755-.0347.113-.053,2.8152-1.3748,3.4966-6.0337,1.5056-10.4758C118.60548,60.76955,114.59649,58.16875,111.68659,59.47305Zm8.38889,6.0432c1.8586,4.1465,1.3062,8.4568-1.2191,9.6897q-.04815.0234-.0973.0455c-2.60809,1.169-6.26109-1.296-8.14349-5.4949a11.24211,11.24211,0,0,1-1.0117-6.0698,4.44277,4.44277,0,0,1,2.3284-3.6657C114.54009,58.85205,118.19308,61.31705,120.07548,65.51625Zm-7.32859,8.3796c.0769.0749.1523.154.2304.2256C112.90119,74.04555,112.82059,73.974,112.74689,73.89585Zm-24.5071-28.4938a1.86123,1.86123,0,1,0-.1934,3.4336,1.89253,1.89253,0,0,0,.2056-.0857,1.86164,1.86164,0,0,0-.0122-3.3479Zm-2.1113,2.1328a1.383,1.383,0,0,1,.6966-1.6966l.0029-.0013a.97553.97553,0,0,0-.3718.578,1.51905,1.51905,0,0,1,.6103-.2058,1.89555,1.89555,0,0,1,.5021.0049,1.9232,1.9232,0,0,1,.4826.1373,1.53282,1.53282,0,0,1,.5289.3684.93946.93946,0,0,0-.1316-.574,1.37569,1.37569,0,0,1,.2867.4772l.0001.0001a1.34534,1.34534,0,0,1-.2617,1.3544,1.0318,1.0318,0,0,0,.0461-.948,1.19656,1.19656,0,0,1-.4167.6877,1.12019,1.12019,0,0,1-.5921.2685,1.10821,1.10821,0,0,1-.6373-.1395,1.18029,1.18029,0,0,1-.5484-.5981,1.0157,1.0157,0,0,0,.183.8481A1.36285,1.36285,0,0,1,86.12849,47.53485Zm-12.0433-12.9103q-4.2732-6.0975-8.3259-12.3461s-1.8296-2.8329-3.5759-5.7174c-.433-.7233-.8659-1.4465-1.2719-2.1245-.3972-.6832-.768-1.3206-1.0858-1.8671-.3089-.5516-.5662-1.0112-.7465-1.3329-.0873-.1625-.1559-.29-.2028-.3771a.57234.57234,0,0,1-.0628-.1386.61947.61947,0,0,1,.0944.1286c.0556.0873.1371.2153.2411.3782.2023.3289.4914.7987.8383,1.3625.3487.5626.7555,1.2189,1.1915,1.9221.4411.6997.9116,1.4461,1.3821,2.1925.9473,1.4889,1.9062,2.9701,2.6352,4.0746.7304,1.1034,1.2173,1.8391,1.2173,1.8391,2.6863,4.0398,5.4645,8.0179,8.2981,11.9557q2.1255,2.9532,4.2898,5.8786l.5395.7286a5.34373,5.34373,0,0,0,.5714.6409c.1343.1305.2846.2432.4312.36q-5.202-7.06485-10.0712-14.3635s-1.1916-1.7921-2.3541-3.6029c-.5834-.904-1.1576-1.8139-1.5847-2.4985-.2112-.3438-.3872-.6303-.5105-.8308l-.139-.2354a.35045.35045,0,0,1-.0432-.087.38141.38141,0,0,1,.0638.0793l.1642.2346c.1379.2044.335.4963.5713.8466.471.7018,1.0989,1.6375,1.7267,2.5731l2.5346,3.7264q5.19765,7.57965,10.77,14.8897.23655.11715.4814.2158l-5.8527-8.1461s-2.8542-3.9856-2.8081-4.0195c.046-.0339,3.1397,4.0658,3.1397,4.0658l6.2901,8.3522c.0657.0169.131.0365.1969.051.0494.0107.0998.0161.1495.0252l-3.6413-5.1608s-1.8417-2.6237-1.7956-2.6574c.0462-.0337,2.0794,2.6392,2.0794,2.6392l3.9825,5.2516a5.03107,5.03107,0,0,0,.5034.0004l-.8853-1.3362a6.46172,6.46172,0,0,1-.5242-.9084,7.09233,7.09233,0,0,1,.7465.8056l1.1488,1.3897c.3304-.0436.6137-.1052.8808-.1661.2821-.0631.5243-.1153.7253-.147.4026-.0656.6348-.0439.6705.0396.0358.0836-.1144.224-.4684.4157a5.58553,5.58553,0,0,1-.7006.312,4.62612,4.62612,0,0,1-1.0927.2726,6.87637,6.87637,0,0,1-6.4998-3.5145Q76.22069,37.6743,74.08519,34.62455Zm42.43819,23.6618a15.25562,15.25562,0,0,1,6.0029,6.4774,11.73177,11.73177,0,0,1,1.07071,4.2908,10.0764,10.0764,0,0,1-.72561,4.3955,11.55674,11.55674,0,0,0,.2633-4.3829,13.81976,13.81976,0,0,0-1.1765-4.0737A19.25562,19.25562,0,0,0,116.52338,58.28635Zm4.9107,6.8057a15.70545,15.70545,0,0,0-3.90909-5.3415,12.69732,12.69732,0,0,1,5.32339,11.8096A15.74327,15.74327,0,0,0,121.43408,65.09205Zm-7.07049,11.0931a12.04019,12.04019,0,0,1-6.1557-10.1904,15.78227,15.78227,0,0,0,6.1557,10.1904Zm4.35609,6.3254a22.87812,22.87812,0,0,0-2.1444-2.7568,22.60692,22.60692,0,0,0-2.53029-2.4064A9.394,9.394,0,0,1,118.71968,82.51055Zm1.3636-1.3099a5.78475,5.78475,0,0,0,1.3803,2.6357,4.10175,4.10175,0,0,1-1.2623-5.6094A5.8074,5.8074,0,0,0,120.08328,81.20065Zm-11.93779-20.8026a2.84386,2.84386,0,0,0-.2741-1.1374,3.78753,3.78753,0,0,0-.6596-.9405,10.49916,10.49916,0,0,0-1.8067-1.3986c-1.2686-.8493-2.5557-1.6339-3.8746-2.361-1.3212-.7228-2.6724-1.3904-4.0689-2.0069-1.3986-.6114-2.8431-1.1686-4.3501-1.6712a34.63841,34.63841,0,0,1,8.6434,3.3352,35.14264,35.14264,0,0,1,3.8512,2.4691c.307.2309.6114.461.9159.7032a5.88259,5.88259,0,0,1,.8372.8254,3.81734,3.81734,0,0,1,.6051,1.0166A2.83471,2.83471,0,0,1,108.14549,60.39805Zm-5.4507-7.4929a4.51033,4.51033,0,0,1-1.052-2.8657,9.55722,9.55722,0,0,0,1.5234,2.4749,7.94022,7.94022,0,0,0,2.2291,1.8097A4.09859,4.09859,0,0,1,102.69479,52.90515Zm-11.1021-2.5476a23.822,23.822,0,0,1-3.3543.4615q-.83415.0546-1.6633.05-.41445-.003-.8274-.0192l-.4126-.0205-.5419-.0382-.705-.8905-.6135-.7942q-.60915-.7986-1.2032-1.6172c-.7932-1.0931-1.5707-2.2183-2.3448-3.3911.9497,1.0359,1.8559,2.0621,2.7292,3.0929q.6549.7731,1.2867,1.5515l.6272.7816.5357.6831c-.0588-.0037.1573.0147.2747.0255l.4059.0325.8139.055q.81555.0483,1.6398.0695C89.33929,50.41775,90.45369,50.40915,91.59269,50.35755Z" style="fill:#4d4e7a"/></svg>